<?xml version="1.0" encoding="UTF-8"?>
<svg version="1.1" viewBox="0 0 2048 407" width="951" height="189" xmlns="http://www.w3.org/2000/svg">
<path transform="translate(0)" d="m0 0h2048v407h-2048z" fill="#FDFDFD"/>
<path transform="translate(259,204)" d="m0 0h66l4 10 4 18v28l-3 14-5 15-9 17-13 16-12 12-16 11-11 7-22 9-19 6-21 3h-19l-1-5-55-1v-48h-70l-3-3v-2h-2l-4-6-6-8-2-6h144v-22h33l1 1v22l5-1v-55h27l3 12 1 10v12l-3 18-1 2 5-5 6-9 4-8 3-12v-21l-4-17-4-9z" fill="#020101"/>
<path transform="translate(1924,98)" d="m0 0h28l17 45 35 91 19 50 7 18v4h-27l-4-8-17-47-1-2-86-1-3 9-16 44-3 5h-27l1-6 21-55 19-50 18-47z" fill="#3D3D3E"/>
<path transform="translate(1358,98)" d="m0 0h27l4 9 19 50 15 39 21 55 18 47 2 5v3h-27l-3-4-19-53h-86l-11 29-10 27-1 1h-28l3-9 15-40 18-47 22-58 16-42z" fill="#3D3D3E"/>
<path transform="translate(707,102)" d="m0 0h59l20 2 13 4 14 6 10 7 10 10 8 14 4 15v18l-4 14-7 11-6 7-11 8-13 6-11 3h-6l9 12 16 21 15 20 10 13 12 16v1h-31l-9-11-56-76-7-9v-2l30-2 12-3 13-7 7-7 5-10 2-7v-13l-3-11-7-9-8-7-10-5-10-2-11-1-32-1v183h-27z" fill="#030202"/>
<path transform="translate(1689,98)" d="m0 0h64l16 2 13 4 12 5 10 7 7 6 8 11 5 11 3 12v17l-4 14-6 10-9 10-8 6-12 6-15 4h-4l15 20 14 18 12 16 16 21 4 5v3h-29l-5-5-14-19-12-16-28-38-12-16-2-5h15l14-1 15-4 12-7 7-8 4-8 2-7v-14l-4-12-7-9-10-7-10-4-12-2-38-1v183h-26l-1-1z" fill="#3D3D3E"/>
<path transform="translate(260,24)" d="m0 0h14l15 3 12 5 11 7 9 8 9 14 3 9 1 5v10l-4 16-2 5-3-1-2-5h-2l-4-11-3-6v-2l-5-2-6-6v10l4 6 4 1 3 12 3 4v2h2v2l7 2v20l4 14-1 3-8-7-8-11-6-12-2-5v-4l-9-1-12-6-4-4-4-10-2-15-3-5-6-3-8-1-9 3-10 9-4 10-1 11 4 13 6 10 9 10 9 8 2 1v2l5 2 6 5 9 6v2l5 2 14 12 10 11 10 15-1 2-66-1-9-12-9-10-7-8-13-12-11-14-5-9-4-9-3-12-1-8v-11l4-20 8-17 11-12 7-6 14-8 13-4z" fill="#030202"/>
<path transform="translate(1019,99)" d="m0 0h15l19 3 18 6 15 8 1 2-7 20-4-1-15-7-20-6-6-1h-18l-12 3-9 6-5 6-2 5v15l7 10 4 3v2l5 2 19 10 12 5 17 8 7 4 11 7 11 9 6 8 5 10 3 14v11l-4 16-7 11-9 9-14 9-10 4-14 3h-28l-18-4-19-7-17-9-4-3 7-21h3l16 8 9 4 16 6 15 3h13l16-4 9-6 7-8 3-7 1-13-3-10-8-9-14-9-16-8-20-9-16-8-14-10-8-9-7-14-2-9v-12l3-12 7-12 10-9 11-6 15-5z" fill="#040303"/>
<path transform="translate(1185,95)" d="m0 0h20l17 3 17 6 14 7 2 3-7 20-5-2-16-7-21-6-12-1-16 2-9 4-7 5-5 9-1 8 2 9 6 9 8 6 21 11 20 9 19 10 11 8 7 6 6 8 5 10 2 7 1 8v10l-4 15-6 10-9 10-14 9-13 5-14 3h-22l-17-3-21-7-21-11-3-2 7-21 2-1 21 11 18 7 20 4h10l14-3 8-4 9-8 4-8 2-8v-8l-3-9-9-10-14-9-23-11-20-9-15-9-10-9-7-8-5-11-2-10v-10l3-13 6-11 8-8 13-8 15-5z" fill="#3D3D3E"/>
<path transform="translate(630,102)" d="m0 0h31l-6 9-10 12-22 28-13 16-10 13-12 15-5 6 2 4 13 15 12 14 11 13 12 14 22 26 18 21v2h-32l-13-15-11-13-9-11-12-14-11-13-9-11-12-14-9-11-3-3 1-4 12-15 12-16 14-18 26-34 11-15z" fill="#040303"/>
<path transform="translate(1611,98)" d="m0 0h31l-2 4-13 17-14 17-10 13-11 14-13 16-10 13-4 6 9 11 13 15 9 11 9 10 9 11 13 15 22 26 6 7v2h-31l-12-13-9-11-12-14-11-13-9-11-12-14-9-11-13-15-3-4 2-4 12-16 11-14 13-17 20-26 16-21z" fill="#3D3D3E"/>
<path transform="translate(887,102)" d="m0 0h26l1 1v207h-28v-207z" fill="#070606"/>
<path transform="translate(517,102)" d="m0 0h26l1 1v207h-28v-207z" fill="#080707"/>
<path transform="translate(1499,98)" d="m0 0h26l1 8v172l-1 28h-26l-1-32v-109z" fill="#3E3E3F"/>
<path transform="translate(116,146)" d="m0 0h13l24 4 12 3 19 7 13 7 12 8 12 11 10 11v2h-63l-3-1-2-21-2 22h-44l-1-1z" fill="#060505"/>
<path transform="translate(416,13)" d="m0 0h11v370h-11z" fill="#FC121D"/>
<path transform="translate(1938,132)" d="m0 0 2 1 17 47 16 43v4h-69l-1-2 23-63 11-29z" fill="#FBFBFB"/>
<path transform="translate(1371,132)" d="m0 0h2l18 49 16 43-1 3h-69l1-6 14-38 11-30z" fill="#FBFBFB"/>
<path transform="translate(137,236)" d="m0 0h80l1 1v28h-82v-28z" fill="#070606"/>
<path transform="translate(45,140)" d="m0 0h2l4 7 8 9 3 2v2l5 2 9 4 12 3h23l1 1v28l-1 1h-25l-12-2-10-5v-2l-4-2-1-3h-2l-1-4h-2l-5-11-4-17z" fill="#C6C7C7"/>
<path transform="translate(116,203)" d="m0 0h45v28h-45z" fill="#030202"/>
<path transform="translate(205,204)" d="m0 0h31l6 10 6 14v3h-43z" fill="#030202"/>
<path transform="translate(166,203)" d="m0 0h34v28h-35v-27z" fill="#080707"/>
<path transform="translate(91,321)" d="m0 0h28v30h-28l-1-1v-28z" fill="#080707"/>
<path transform="translate(46,236)" d="m0 0h28v29h-29v-28z" fill="#060505"/>
<path transform="translate(91,203)" d="m0 0h21v29h-21z" fill="#424142"/>
<path transform="translate(1399,53)" d="m0 0 9 2 5 4 2 4v7l-4 6-4 3-10 1-6-3-4-4-1-3v-7l4-6 5-3z" fill="#3D3D3E"/>
<path transform="translate(1341,53)" d="m0 0 9 2 5 5 2 5-1 7-4 5-7 3-9-1-7-6-1-2v-9l6-7z" fill="#3E3E3F"/>
<path transform="translate(91,237)" d="m0 0h21v28l-2 1h-19z" fill="#6B6869"/>
<path transform="translate(92,145)" d="m0 0h19v19h-19z" fill="#6C696A"/>
<path transform="translate(114,269)" d="m0 0h21v17l-1 1h-19z" fill="#404041"/>
<path transform="translate(62,208)" d="m0 0h18v20h-18z" fill="#6C696A"/>
<path transform="translate(34,196)" d="m0 0h18v19l-1 1h-10l-7-1z" fill="#C6C7C7"/>
<path transform="translate(90,273)" d="m0 0h14v11l-14 1z" fill="#6C696A"/>
<path transform="translate(30,168)" d="m0 0h8l1 1 1 11-11 1-2-1v-11z" fill="#C6C7C7"/>
<path transform="translate(123,284)" d="m0 0 7 1 3 2h-15l2-2z" fill="#6C696A"/>
</svg>
